Coordinates
version=1
nRows=27
nColumns=38
inDegrees=no

Units are S.I. units (second, meters, Newtons, ...)
If the header above contains a line with 'inDegrees', this indicates whether rotational values are in degrees (yes) or radians (no).

endheader
time	pelvis_tilt	pelvis_list	pelvis_rotation	pelvis_tx	pelvis_ty	pelvis_tz	hip_flexion_r	hip_adduction_r	hip_rotation_r	knee_angle_r	ankle_angle_r	subtalar_angle_r	mtp_angle_r	hip_flexion_l	hip_adduction_l	hip_rotation_l	knee_angle_l	ankle_angle_l	subtalar_angle_l	mtp_angle_l	lumbar_extension	lumbar_bending	lumbar_rotation	arm_flex_r	arm_add_r	arm_rot_r	elbow_flex_r	pro_sup_r	wrist_flex_r	wrist_dev_r	arm_flex_l	arm_add_l	arm_rot_l	elbow_flex_l	pro_sup_l	wrist_flex_l	wrist_dev_l
0.47	2.88925	1.47805	-1.24729	0.635981	0.503555	1.02883	0.400434	0.0237284	-0.121128	0.587781	-0.181863	0	0	-0.39014	-0.054117	-0.239253	0.472471	-0.169129	0	0	-0.255294	0.100116	-0.177382	-0.257864	-0.199155	-0.118369	0.594608	0.408047	0	0	-0.114471	-0.662179	0.433136	0.908521	1.2059	0	0
0.48	2.86012	1.47637	-1.22098	0.637394	0.516689	1.02997	0.393769	0.0329813	-0.102915	0.600017	-0.184376	0	0	-0.38385	-0.0598111	-0.23752	0.507047	-0.179673	0	0	-0.256516	0.104958	-0.175376	-0.258818	-0.200125	-0.118301	0.592616	0.412405	0	0	-0.12076	-0.651333	0.435937	0.897334	1.2075	0	0
0.49	2.82066	1.47786	-1.18581	0.639099	0.529689	1.03078	0.391498	0.0435161	-0.0763035	0.614596	-0.182291	0	0	-0.368172	-0.0671868	-0.244055	0.553487	-0.208309	0	0	-0.252931	0.110013	-0.171081	-0.261166	-0.205743	-0.104063	0.593041	0.375598	0	0	-0.118198	-0.648968	0.469797	0.88427	1.18205	0	0
0.5	2.79706	1.47685	-1.16461	0.640708	0.542361	1.03198	0.385036	0.0527256	-0.0567305	0.627112	-0.180147	0	0	-0.352326	-0.0737728	-0.243159	0.600746	-0.231536	0	0	-0.253968	0.114399	-0.169302	-0.261368	-0.205159	-0.107967	0.592133	0.373525	0	0	-0.12284	-0.640867	0.479208	0.873774	1.17809	0	0
0.51	2.78004	1.47478	-1.14856	0.642238	0.554779	1.03328	0.376531	0.0600897	-0.0479393	0.636456	-0.176727	0	0	-0.334798	-0.0801184	-0.238137	0.650461	-0.253637	0	0	-0.256878	0.11877	-0.168246	-0.26193	-0.205262	-0.109436	0.592144	0.374247	0	0	-0.127501	-0.633083	0.486898	0.864656	1.17383	0	0
0.52	2.76707	1.47257	-1.13569	0.643669	0.567001	1.03452	0.366761	0.0649821	-0.0498439	0.64208	-0.172816	0	0	-0.315215	-0.0858908	-0.230588	0.70249	-0.272565	0	0	-0.260229	0.122916	-0.167537	-0.262752	-0.205316	-0.111408	0.592939	0.375363	0	0	-0.132812	-0.625667	0.493377	0.857143	1.1705	0	0
0.53	2.75595	1.47069	-1.12409	0.645062	0.57894	1.03561	0.356306	0.0683024	-0.0576196	0.645179	-0.16814	0	0	-0.292955	-0.0906712	-0.220457	0.757116	-0.287766	0	0	-0.263536	0.126688	-0.166983	-0.263613	-0.205164	-0.114175	0.594733	0.377593	0	0	-0.138644	-0.618668	0.498655	0.851524	1.16805	0	0
0.54	2.74515	1.4692	-1.11215	0.64643	0.590534	1.03655	0.345648	0.0712319	-0.0673138	0.647857	-0.162539	0	0	-0.267522	-0.0948251	-0.208618	0.815947	-0.300225	0	0	-0.266812	0.130238	-0.166429	-0.264491	-0.204617	-0.118214	0.597523	0.382004	0	0	-0.144347	-0.612051	0.502824	0.846763	1.16666	0	0
0.55	2.72765	1.47052	-1.0928	0.64773	0.60191	1.03716	0.338382	0.0734474	-0.0759581	0.653205	-0.144461	0	0	-0.236145	-0.098797	-0.197473	0.879357	-0.313536	0	0	-0.265347	0.132904	-0.166474	-0.267335	-0.224651	-0.0562976	0.604128	0.320362	0	0	-0.137153	-0.618638	0.556037	0.842338	1.12101	0	0
0.56	2.7299	1.47021	-1.09319	0.648976	0.612962	1.03808	0.327863	0.074549	-0.0819417	0.657419	-0.134765	0	0	-0.206943	-0.100798	-0.186274	0.93976	-0.317719	0	0	-0.268162	0.134364	-0.165045	-0.267963	-0.226144	-0.0535763	0.606715	0.321752	0	0	-0.139134	-0.614479	0.568581	0.83833	1.1171	0	0
0.57	2.74428	1.46916	-1.10603	0.650155	0.623846	1.03922	0.315139	0.0750546	-0.0854016	0.659926	-0.126312	0	0	-0.179099	-0.10108	-0.175137	0.996156	-0.312723	0	0	-0.27222	0.134813	-0.162755	-0.267283	-0.226742	-0.0531654	0.607743	0.32122	0	0	-0.140177	-0.610188	0.580727	0.834274	1.11344	0	0
0.58	2.76964	1.46729	-1.13085	0.651352	0.63463	1.04064	0.300174	0.0752343	-0.0869455	0.659913	-0.119715	0	0	-0.153204	-0.0996927	-0.165855	1.04654	-0.300307	0	0	-0.277416	0.133994	-0.159193	-0.265995	-0.227141	-0.0524018	0.607055	0.321514	0	0	-0.140882	-0.605602	0.592128	0.829921	1.11249	0	0
0.59	2.79949	1.46583	-1.16122	0.652588	0.645378	1.0422	0.284906	0.0749373	-0.088523	0.657577	-0.112895	0	0	-0.12752	-0.0969111	-0.159503	1.09223	-0.278448	0	0	-0.281827	0.131878	-0.154644	-0.263544	-0.226355	-0.0541531	0.603751	0.320944	0	0	-0.141379	-0.600869	0.604098	0.824681	1.11323	0	0
0.6	2.83622	1.46485	-1.19998	0.653905	0.656105	1.04387	0.26995	0.0737277	-0.091257	0.654298	-0.107185	0	0	-0.102266	-0.0927551	-0.157425	1.13293	-0.254348	0	0	-0.285482	0.128058	-0.14918	-0.259978	-0.224644	-0.0578037	0.598201	0.320583	0	0	-0.142921	-0.59604	0.614604	0.819587	1.11607	0	0
0.61	2.87761	1.46413	-1.24464	0.655253	0.666907	1.0456	0.254598	0.0718512	-0.0938631	0.650353	-0.103137	0	0	-0.0778705	-0.0880276	-0.159254	1.16843	-0.234741	0	0	-0.289188	0.12274	-0.142622	-0.25698	-0.223099	-0.0607494	0.592697	0.324021	0	0	-0.145431	-0.590802	0.622712	0.815088	1.11985	0	0
0.62	2.9194	1.46431	-1.29089	0.656749	0.677635	1.04727	0.24049	0.0694542	-0.0944838	0.645856	-0.0949372	0	0	-0.0525417	-0.0829513	-0.162981	1.19856	-0.209998	0	0	-0.288797	0.116426	-0.137139	-0.252638	-0.240449	0.00120876	0.587049	0.255418	0	0	-0.146271	-0.590138	0.645951	0.81092	1.10765	0	0
0.63	2.96282	1.46382	-1.3389	0.658128	0.688445	1.04905	0.223828	0.0668786	-0.0941826	0.638971	-0.088722	0	0	-0.0283306	-0.0783419	-0.168775	1.22286	-0.194368	0	0	-0.290122	0.110045	-0.130248	-0.248627	-0.23845	-0.00111334	0.577756	0.251321	0	0	-0.150701	-0.585358	0.65416	0.806552	1.10859	0	0
0.64	3.00505	1.46193	-1.38544	0.659387	0.699249	1.05096	0.204632	0.0641675	-0.0944037	0.63008	-0.0836793	0	0	-0.00544372	-0.0746738	-0.176127	1.24212	-0.183834	0	0	-0.292651	0.104222	-0.123696	-0.244858	-0.23668	-0.00380308	0.568987	0.248657	0	0	-0.156426	-0.579646	0.657984	0.802814	1.10633	0	0
0.65	3.04417	1.45898	-1.42892	0.660519	0.710046	1.0529	0.184253	0.0610971	-0.0961563	0.621577	-0.0802483	0	0	0.0156787	-0.0714529	-0.183562	1.25538	-0.176978	0	0	-0.296092	0.0990044	-0.117191	-0.242261	-0.235426	-0.00679182	0.562312	0.247234	0	0	-0.163195	-0.573403	0.659222	0.799758	1.10417	0	0
0.66	3.07868	1.45567	-1.46807	0.661554	0.72079	1.0548	0.163661	0.0577669	-0.0991892	0.612914	-0.0778148	0	0	0.035761	-0.068566	-0.19103	1.26337	-0.171392	0	0	-0.299794	0.0942599	-0.11067	-0.240148	-0.234158	-0.0106518	0.556809	0.246577	0	0	-0.170586	-0.566816	0.659358	0.796959	1.1027	0	0
0.67	3.10804	1.45229	-1.50196	0.662549	0.73148	1.05664	0.142626	0.0545698	-0.103739	0.602509	-0.0756357	0	0	0.0552193	-0.0664629	-0.198817	1.2667	-0.16523	0	0	-0.303456	0.0899294	-0.104198	-0.237905	-0.232231	-0.016136	0.5511	0.24813	0	0	-0.1781	-0.559951	0.658696	0.793845	1.10139	0	0
0.68	3.13141	1.44756	-1.52952	0.66353	0.742104	1.05848	0.119626	0.0519127	-0.109668	0.589435	-0.0715973	0	0	0.0720642	-0.0655748	-0.207473	1.26495	-0.153577	0	0	-0.307989	0.0859326	-0.0995649	-0.233627	-0.240959	0.018618	0.545783	0.210831	0	0	-0.187095	-0.553986	0.65814	0.792068	1.09499	0	0
0.69	-3.13145	1.4436	-1.55414	0.664537	0.752696	1.06014	0.0978686	0.049523	-0.115544	0.577034	-0.0688575	0	0	0.0888876	-0.0651514	-0.217189	1.25896	-0.144931	0	0	-0.312164	0.0821438	-0.0932986	-0.231648	-0.239684	0.0152083	0.540943	0.212735	0	0	-0.195338	-0.547169	0.655662	0.789279	1.09391	0	0
0.7	-3.11307	1.43994	-1.57681	0.665523	0.763237	1.06164	0.0765131	0.0472202	-0.120709	0.564417	-0.0661751	0	0	0.105094	-0.065217	-0.228218	1.2489	-0.136916	0	0	-0.316138	0.078411	-0.0866637	-0.230504	-0.238317	0.0100448	0.537612	0.214256	0	0	-0.203299	-0.540221	0.65312	0.78636	1.09301	0	0
0.71	-3.09549	1.43661	-1.5988	0.666436	0.773784	1.06297	0.0549697	0.0446228	-0.125311	0.550573	-0.063239	0	0	0.120539	-0.0659133	-0.241559	1.23466	-0.129137	0	0	-0.319564	0.0746744	-0.0802035	-0.229369	-0.236644	0.00248448	0.534989	0.214173	0	0	-0.21124	-0.533107	0.650731	0.783146	1.09071	0	0
0.72	-3.07865	1.43401	-1.61999	0.667265	0.784327	1.06402	0.0351744	0.0416084	-0.130022	0.539176	-0.0608564	0	0	0.135723	-0.066974	-0.256266	1.21659	-0.122986	0	0	-0.321995	0.0710022	-0.0742296	-0.228207	-0.235312	-0.00438908	0.533053	0.214754	0	0	-0.219201	-0.526371	0.649212	0.78014	1.08848	0	0
0.73	-3.06321	1.43206	-1.63971	0.667993	0.794924	1.0648	0.0168048	0.038498	-0.135225	0.530075	-0.0589605	0	0	0.150485	-0.0680535	-0.271581	1.19479	-0.118468	0	0	-0.323542	0.0674141	-0.0685675	-0.227498	-0.234355	-0.010597	0.531762	0.217354	0	0	-0.227062	-0.519922	0.648454	0.777193	1.0872	0	0
